<?xml version="1.0" encoding="UTF-8"?>
<svg width="10mm" height="10mm" version="1.1" viewBox="0 0 10 10" xmlns="http://www.w3.org/2000/svg" xmlns:cc="http://creativecommons.org/ns#" xmlns:dc="http://purl.org/dc/elements/1.1/" xmlns:rdf="http://www.w3.org/1999/02/22-rdf-syntax-ns#">
 <metadata>
  <rdf:RDF>
   <cc:Work rdf:about="">
    <dc:format>image/svg+xml</dc:format>
    <dc:type rdf:resource="http://purl.org/dc/dcmitype/StillImage"/>
    <dc:title/>
   </cc:Work>
  </rdf:RDF>
 </metadata>
 <path d="m3.7922 1.0449c-0.05524 0.027817-0.13647 0.085594-0.17872 0.12839-0.1381 0.13267-2.4663 3.2248-2.515 3.3382-0.1316 0.306-0.1316 0.65052 0.00162 0.97364 0.051992 0.12197 2.4062 3.2419 2.5329 3.3532 0.3688 0.32526 0.87571 0.14123 1.0642-0.38517 0.09098-0.25678 0.09261-0.54138 0.0032-0.81315-0.03899-0.11341-0.10886-0.21399-0.62876-0.90516l-0.58489-0.77463h2.4127c1.6783 0 2.4419-0.0064 2.5102-0.02354 0.47928-0.11555 0.73274-0.81315 0.5069-1.3995-0.08611-0.2204-0.30869-0.43439-0.49878-0.48147-0.05524-0.01284-0.96182-0.0214-2.5102-0.0214h-2.4208l0.57839-0.76607c0.5199-0.68475 0.58489-0.77891 0.62876-0.90302 0.17222-0.48361 0.02437-1.0443-0.33794-1.2796-0.11373-0.074895-0.1316-0.079177-0.29245-0.083457-0.14785-0.00642-0.18684 0-0.27132 0.042799z" fill="#001d89" stroke-width=".0018646"/>
</svg>
