<svg xmlns="http://www.w3.org/2000/svg" width="279.685" height="279.685" viewBox="0 0 74 74" xmlns:v="https://vecta.io/nano"><path d="M0 0h74v74H0z" fill="#eeb5bf"/><g fill="#fff"><g transform="matrix(.12472577 .12472577 -.12472577 .12472577 136.74808 73.926058)"><path d="M437.332 192H32c-17.6641 0-32 14.3359-32 32v21.332c0 17.6641 14.3359 32 32 32h405.332c17.6641 0 32-14.3359 32-32V224c0-17.6641-14.3359-32-32-32zm0 0"/><path d="M192 32v405.332c0 17.6641 14.3359 32 32 32h21.332c17.6641 0 32-14.3359 32-32V32c0-17.6641-14.3359-32-32-32H224c-17.6641 0-32 14.3359-32 32zm0 0"/></g><rect width="66" height="66" x="4" y="4" ry="8.9457"/><path d="M218.1977 168.7372H205.212c-.5765 0-1.0817.2201-1.5146.6568s-.6495.9478-.6495 1.5312v13.1259c0 .5835.217 1.0941.6495 1.5312s.9375.6562 1.5146.6562h12.9857c.5765 0 1.0831-.2191 1.5142-.6562s.6506-.9478.6506-1.5312v-13.1259c0-.5835-.216-1.0934-.6506-1.5312s-.9377-.6568-1.5142-.6568zm17.0448-39.291c-1.4793-2.7541-3.3905-5.0772-5.7357-6.9735s-4.9786-3.4094-7.8998-4.5391-5.8252-1.6948-8.7114-1.6948c-10.9649 0-19.3331 4.8491-25.1049 14.5474-.2882.4737-.3877.984-.2977 1.531s.3701 1.0022.839 1.3667l8.8737 6.8366c.4688.2912.9199.4369 1.3529.4369.6495 0 1.2081-.2921 1.6775-.8754 2.5967-3.2808 4.5268-5.3772 5.7892-6.2891 1.5513-1.057 3.4986-1.5853 5.8432-1.5853 2.2002 0 4.1385.5835 5.8165 1.7492s2.515 2.516 2.515 4.0472c0 1.7128-.4501 3.0989-1.3522 4.1562s-2.417 2.0773-4.5456 3.0621c-2.8127 1.2759-5.3929 3.254-7.7364 5.9338s-3.5169 5.5329-3.5169 8.5588v2.4608c0 .6934.1884 1.3767.5678 2.0511s.8386 1.012 1.38 1.012h12.9855c.5772 0 1.0817-.282 1.5149-.8489s.6493-1.1562.6493-1.7751c0-.9112.4959-2.1339 1.4871-3.6643s2.2271-2.7173 3.7072-3.5561l3.2996-1.941c.7952-.4915 1.8314-1.2863 3.1123-2.3792s2.2724-2.1789 2.9749-3.254 1.3353-2.4702 1.8943-4.1842.8392-3.5548.8392-5.5233c-.0004-3.0261-.7404-5.9152-2.2184-8.6664z"/></g><path d="M-68.1916-5.027h21.1667v26.4583h-21.1667z" fill-opacity="0"/><g fill="#fff"><path d="M155.9705 146.7781l-42.7478-42.7478c-1.8629-1.8629-4.9192-1.8305-6.822.0724l-2.298 2.298c-1.9029 1.9029-1.9353 4.9591-.0724 6.822l42.7478 42.7478c1.8629 1.8629 4.9192 1.8305 6.822-.0724l2.298-2.298c1.9029-1.9029 1.9353-4.9591.0724-6.822zm0 0"/><path d="M146.1209 103.4521l-42.7478 42.7478c-1.8629 1.8629-1.8305 4.9192.0724 6.822l2.298 2.298c1.9029 1.9029 4.9591 1.9353 6.822.0724l42.7478-42.7478c1.8629-1.8629 1.8305-4.9192-.0724-6.822l-2.298-2.298c-1.9029-1.9029-4.9591-1.9353-6.822-.0724zm0 0"/></g><rect width="60" height="60" x="7" y="7" ry="6.7972" fill="#eeb5bf"/><path d="M42.5999 12.1219c-.4855.0899-1.0102.3322-1.3705.6449-.325.2775-.6422.8677-.7714 1.4305-.0822.3596-.141.9889-.141 1.536 0 .5237-.1292 1.6377-.3133 2.7203-.3877 2.2552-.881 3.6115-1.6798 4.6394-.3485.4456-.7988.8755-1.6485 1.579-1.0416.8638-1.5702 1.4071-2.0518 2.1184-.3289.4847-.5404.9029-1.0416 2.0793l-1.6446 3.6349c-1.163 2.3568-2.3416 4.061-3.2187 4.659l-.2741.1876-.6148.0235c-.7479.0313-1.022.1055-1.3822.3791-.2741.2072-.5404.5706-.6461.8794-.0666.1915-.0705.7348-.1018 9.3101l-.0352 9.6345c0 .4299.0157.5863.0861.8521.0979.3674.3015.7114.5325.9029.3798.3127 1.0494.5355 1.9657.6527.6148.0743 4.4561.7778 6.41 1.1686 1.672.3361 2.0518.3909 3.1521.469l7.3028.4182h5.2666c2.7527-.2462 4.4717-.8833 6.0537-2.2396.8732-.7465 1.5741-1.5908 1.8952-2.2748.2819-.6019.3172-.7895.3485-1.8839.0352-1.2625-.0039-1.1647.9163-2.1301l.9006-.9889c.2976-.3713.556-.8403.7009-1.2781.1214-.3596.1253-.3909.1253-1.0358 0-.7661-.0431-.9459-.4307-1.8956l-.3602-.8677c-.1645-.4104-.1762-.3752.2741-.8716.9633-1.0748 1.2452-1.4891 1.4449-2.1301.0783-.2423.094-.3752.0901-.7817 0-.4417-.0117-.5237-.1253-.8481-.1566-.4651-.325-.7934-.7714-1.5165l-.4699-.7739-.1057-.1876.2858-.3713c.5364-.6918.6696-.8951.8419-1.2507.4268-.8833.4542-1.8565.0861-2.9001-.3994-1.1452-1.5506-2.7946-2.4865-3.5724-1.1277-.942-2.138-1.2546-4.6518-1.4579-1.7895-.1407-5.4467-.172-7.7531-.0625l-.6813.0156c-.0431-.0352.1292-.6019.3328-1.1178.1214-.3049.4973-1.1257.838-1.8253l1.6211-3.7209c.5169-1.54.7205-2.861.6774-4.3306-.047-1.5126-.3563-2.7399-.9868-3.9398-.8771-1.6572-2.1341-2.736-3.8961-3.3496-.8184-.2853-1.9344-.4338-2.4943-.3322zm1.5741 3.2871c1.4919.5277 2.4003 1.8253 2.6627 3.8225.141 1.0397.0235 2.2474-.3367 3.4434-.2819.9263-.6304 1.7549-1.5115 3.5763-1.2334 2.5444-1.4919 3.2636-1.6211 4.5417-.0548.5042-.0235 1.2742.0587 1.5869.184.6801.6226 1.1608 1.2765 1.3993.3133.1133.7048.1173 2.9955.0391l7.0482.0313c1.2843.1173 1.9892.258 2.4395.4768.7283.3557 2.044 2.1888 2.044 2.8493 0 .2072-.0078.2189-.509.8794-.6696.8794-.9163 1.4071-.9672 2.0598-.0587.7504.184 1.4344.9163 2.5913l.4151.6879.1449.258-.1136.1524c-.0627.0821-.2858.3361-.4934.5628-.9789 1.0514-1.3157 1.7354-1.3157 2.6773 0 .5159.0979.9498.3681 1.6025l.3563.8716c.1018.2423.1919.5198.2075.6175.0196.1524.0078.1954-.1214.3909-.0783.1173-.4386.5198-.7988.8872-.7205.7387-.9711 1.0514-1.2178 1.5126-.3681.6957-.4738 1.1804-.509 2.3647l-.0235.899-.1331.1954c-.0744.1055-.3642.426-.6461.7035-1.8365 1.8253-3.6847 2.1341-10.6937 1.7979l-1.5271-.0782-1.7033-.0977c-3.9235-.2267-3.8491-.2189-5.6778-.6058-.838-.1798-5.204-.9889-5.9166-1.0983-.556-.086-.5208-.0664-.4895-.2775.0117-.0977.0235-3.8069.0235-8.2431l.0744-8.0672c.141 0 .7949-.2345 1.1121-.3987 1.5075-.7817 3.0856-2.8376 4.7262-6.1481.556-1.1217.7871-1.6338 1.6328-3.5919l.6069-1.368c.2898-.5824.6735-1.0006 1.6759-1.8331.8889-.7348 1.7777-1.5986 2.1419-2.0793 1.2648-1.6728 1.95-3.5919 2.3964-6.7266.1801-1.2351.2389-1.8253.2389-2.3217 0-.2462.0117-.512.0235-.5902l.0235-.1446.2428.0547a7.198 7.198 0 0 1 .4738.1368zM15.5699 36.3586c-.3563.0391-.8732.1954-1.1943.3557-.9633.4886-1.6485 1.3367-1.9461 2.4155l-.0901.3322v9.2827l.0666 9.5446c.3602 1.3953 1.3431 2.4037 2.6979 2.775l.3289.0899h3.1521 3.1521l.3328-.0938c1.3548-.3869 2.3298-1.3758 2.6705-2.7242l.0901-.3479v-9.2436-9.2436l-.1096-.3909c-.325-1.1843-1.1356-2.1028-2.228-2.521-.6539-.2541-.5521-.2462-3.7317-.258-1.5937-.0039-3.0307.0078-3.1913.0274zm5.8657 3.1425c.0705.043.1684.1407.2154.215l.0861.1368v8.8919l-.0783 9.0248a.916.916 0 0 1-.188.215c-.1096.0821-.1253.0821-2.8859.0821-2.741 0-2.7762 0-2.8819-.0821a1.07 1.07 0 0 1-.188-.1876l-.0822-.1055-.0117-8.8762.0666-9.0404c.0979-.2189.2349-.3088.5325-.3361.1292-.0156 1.3705-.0235 2.7606-.0195l2.6548.0821zm25.4011 11.656h-3.3763c-.1499 0-.2812.0535-.3938.1595s-.1689.2302-.1689.3719v3.1877c0 .1417.0564.2657.1689.3719s.2438.1594.3938.1594h3.3763c.1499 0 .2816-.0532.3937-.1594s.1692-.2302.1692-.3719v-3.1877c0-.1417-.0562-.2655-.1692-.3719s-.2438-.1595-.3937-.1595zm4.4316-10.6005c-.3846-.6689-.8815-1.233-1.4913-1.6936s-1.2944-.828-2.0539-1.1024-1.5145-.4116-2.265-.4116c-2.8509 0-5.0266 1.1776-6.5273 3.5329-.0749.115-.1008.239-.0774.3718s.0962.2434.2181.3319l2.3071 1.6603c.1219.0707.2392.1061.3518.1061.1689 0 .3141-.0709.4362-.2126.6751-.7968 1.177-1.3059 1.5052-1.5274.4033-.2567.9096-.385 1.5192-.385.5721 0 1.076.1417 1.5123.4248s.6539.611.6539.9829c0 .416-.117.7526-.3516 1.0094s-.6284.5045-1.1819.7437c-.7313.3099-1.4022.7903-2.0115 1.4411s-.9144 1.3437-.9144 2.0786v.5976c0 .1684.049.3343.1476.4981s.218.2458.3588.2458h3.3762c.1501 0 .2812-.0685.3939-.2062s.1688-.2808.1688-.4311c0-.2213.1289-.5182.3866-.8899s.5791-.6599.9639-.8636l.8579-.4714c.2067-.1194.4762-.3124.8092-.5778s.5908-.5292.7735-.7903.3472-.5999.4925-1.0162.2182-.8633.2182-1.3414c-.0001-.7349-.1925-1.4366-.5768-2.1047z" fill="#fff"/></svg>