<svg xmlns="http://www.w3.org/2000/svg" xmlns:xlink="http://www.w3.org/1999/xlink" width="279.685" height="279.685" viewBox="0 0 74 74" xmlns:v="https://vecta.io/nano"><path d="M0 0h74v74H0z" fill="#94cc96"/><g fill="#fff"><g transform="matrix(.124726 .124726 -.124726 .124726 136.74788 73.926258)"><path d="M437.332 192H32c-17.664 0-32 14.336-32 32v21.332c0 17.664 14.336 32 32 32h405.332c17.664 0 32-14.336 32-32V224c0-17.664-14.336-32-32-32zm0 0"/><path d="M192 32v405.332c0 17.664 14.336 32 32 32h21.332c17.664 0 32-14.336 32-32V32c0-17.664-14.336-32-32-32H224c-17.664 0-32 14.336-32 32zm0 0"/></g><rect width="66" height="66" x="4" y="4" ry="8.946"/><path d="M218.198 168.737h-12.986c-.576 0-1.082.22-1.515.657s-.649.948-.649 1.531v13.126a2.11 2.11 0 0 0 .649 1.531c.432.437.938.656 1.515.656h12.986c.576 0 1.083-.219 1.514-.656s.651-.948.651-1.531v-13.126c0-.583-.216-1.093-.651-1.531a2.06 2.06 0 0 0-1.514-.657zm17.044-39.291c-1.479-2.754-3.391-5.077-5.736-6.974s-4.979-3.409-7.9-4.539-5.825-1.695-8.711-1.695c-10.965 0-19.333 4.849-25.105 14.547a2.18 2.18 0 0 0-.298 1.531 2.13 2.13 0 0 0 .839 1.367l8.874 6.837c.469.291.92.437 1.353.437.649 0 1.208-.292 1.678-.875 2.597-3.281 4.527-5.377 5.789-6.289 1.551-1.057 3.499-1.585 5.843-1.585 2.2 0 4.139.583 5.816 1.749s2.515 2.516 2.515 4.047c0 1.713-.45 3.099-1.352 4.156s-2.417 2.077-4.546 3.062c-2.813 1.276-5.393 3.254-7.736 5.934s-3.517 5.533-3.517 8.559v2.461c0 .693.188 1.377.568 2.051s.839 1.012 1.38 1.012h12.985c.577 0 1.082-.282 1.515-.849s.649-1.156.649-1.775c0-.911.496-2.134 1.487-3.664s2.227-2.717 3.707-3.556l3.3-1.941c.795-.492 1.831-1.286 3.112-2.379s2.272-2.179 2.975-3.254 1.335-2.47 1.894-4.184.839-3.555.839-5.523c0-3.026-.74-5.915-2.218-8.666z"/></g><path d="M-68.192-5.027h21.167v26.458h-21.167z" fill-opacity="0"/><g fill="#fff"><path d="M155.97 146.778l-42.748-42.748c-1.863-1.863-4.919-1.831-6.822.072l-2.298 2.298c-1.903 1.903-1.935 4.959-.072 6.822l42.748 42.748c1.863 1.863 4.919 1.831 6.822-.072l2.298-2.298c1.903-1.903 1.935-4.959.072-6.822zm0 0"/><path d="M146.121 103.452L103.373 146.2c-1.863 1.863-1.83 4.919.072 6.822l2.298 2.298c1.903 1.903 4.959 1.935 6.822.072l42.748-42.748c1.863-1.863 1.831-4.919-.072-6.822l-2.298-2.298c-1.903-1.903-4.959-1.935-6.822-.072zm0 0"/></g><rect width="60" height="60" x="7" y="7" ry="6.797" fill="#94cc96"/><g fill="#fff"><path d="M30.636 20H13.363c-.753 0-1.364.672-1.364 1.5v1c0 .828.611 1.5 1.364 1.5h17.273c.753 0 1.364-.672 1.364-1.5v-1c0-.828-.611-1.5-1.364-1.5zm0 0"/><path d="M20 13.364v17.273c0 .753.672 1.364 1.5 1.364h1c.828 0 1.5-.611 1.5-1.364V13.364c0-.753-.672-1.364-1.5-1.364h-1c-.828 0-1.5.611-1.5 1.364zm0 0"/><use xlink:href="#B"/><use xlink:href="#B" y="30"/><path d="M50 43.364v17.273c0 .753.672 1.364 1.5 1.364h1c.828 0 1.5-.611 1.5-1.364V43.364c0-.753-.672-1.364-1.5-1.364h-1c-.828 0-1.5.611-1.5 1.364zM13.168 53.985c-.513-.084-.941-.484-1.108-1.038-.06-.197-.06-.201-.061-.919-.001-.81.006-.868.147-1.196.149-.347.42-.604.808-.768l.128-.054 8.84-.007 9.322.158a1.57 1.57 0 0 1 .605.668c.128.29.15.467.15 1.179 0 .719-.019.858-.157 1.168a1.43 1.43 0 0 1-.86.778c-.114.039-.683.042-8.911.045-4.834.002-8.841-.005-8.903-.015z"/></g><defs ><path id="B" d="M60.636 20H43.363c-.753 0-1.364.672-1.364 1.5v1c0 .828.611 1.5 1.364 1.5h17.273c.753 0 1.364-.672 1.364-1.5v-1c0-.828-.611-1.5-1.364-1.5zm0 0"/></defs></svg>