<svg xmlns="http://www.w3.org/2000/svg" width="279.685" height="279.685" viewBox="0 0 74 74" xmlns:v="https://vecta.io/nano"><path d="M0 0h74v74H0z" fill="#f7bf9b"/><g fill="#fff"><g transform="matrix(.12472577 .12472577 -.12472577 .12472577 136.74808 73.926058)"><path d="M437.332 192H32c-17.6641 0-32 14.3359-32 32v21.332c0 17.6641 14.3359 32 32 32h405.332c17.6641 0 32-14.3359 32-32V224c0-17.6641-14.3359-32-32-32zm0 0"/><path d="M192 32v405.332c0 17.6641 14.3359 32 32 32h21.332c17.6641 0 32-14.3359 32-32V32c0-17.6641-14.3359-32-32-32H224c-17.6641 0-32 14.3359-32 32zm0 0"/></g><rect width="66" height="66" x="4" y="4" ry="8.9457"/><path d="M218.1977 168.7372H205.212c-.5765 0-1.0817.2201-1.5146.6568s-.6495.9478-.6495 1.5312v13.1259c0 .5835.217 1.0941.6495 1.5312s.9375.6562 1.5146.6562h12.9857c.5765 0 1.0831-.2191 1.5142-.6562s.6506-.9478.6506-1.5312v-13.1259c0-.5835-.216-1.0934-.6506-1.5312s-.9377-.6568-1.5142-.6568zm17.0448-39.291c-1.4793-2.7541-3.3905-5.0772-5.7357-6.9735s-4.9786-3.4094-7.8998-4.5391-5.8252-1.6948-8.7114-1.6948c-10.9649 0-19.3331 4.8491-25.1049 14.5474-.2882.4737-.3877.984-.2977 1.531s.3701 1.0022.839 1.3667l8.8737 6.8366c.4688.2912.9199.4369 1.3529.4369.6495 0 1.2081-.2921 1.6775-.8754 2.5967-3.2808 4.5268-5.3772 5.7892-6.2891 1.5513-1.057 3.4986-1.5853 5.8432-1.5853 2.2002 0 4.1385.5835 5.8165 1.7492s2.515 2.516 2.515 4.0472c0 1.7128-.4501 3.0989-1.3522 4.1562s-2.417 2.0773-4.5456 3.0621c-2.8127 1.2759-5.3929 3.254-7.7364 5.9338s-3.5169 5.5329-3.5169 8.5588v2.4608c0 .6934.1884 1.3767.5678 2.0511s.8386 1.012 1.38 1.012h12.9855c.5772 0 1.0817-.282 1.5149-.8489s.6493-1.1562.6493-1.7751c0-.9112.4959-2.1339 1.4871-3.6643s2.2271-2.7173 3.7072-3.5561l3.2996-1.941c.7952-.4915 1.8314-1.2863 3.1123-2.3792s2.2724-2.1789 2.9749-3.254 1.3353-2.4702 1.8943-4.1842.8392-3.5548.8392-5.5233c-.0004-3.0261-.7404-5.9152-2.2184-8.6664z"/></g><path d="M-68.1916-5.027h21.1667v26.4583h-21.1667z" fill-opacity="0"/><g fill="#fff"><path d="M155.9705 146.7781l-42.7478-42.7478c-1.8629-1.8629-4.9192-1.8305-6.822.0724l-2.298 2.298c-1.9029 1.9029-1.9353 4.9591-.0724 6.822l42.7478 42.7478c1.8629 1.8629 4.9192 1.8305 6.822-.0724l2.298-2.298c1.9029-1.9029 1.9353-4.9591.0724-6.822zm0 0"/><path d="M146.1209 103.4521l-42.7478 42.7478c-1.8629 1.8629-1.8305 4.9192.0724 6.822l2.298 2.298c1.9029 1.9029 4.9591 1.9353 6.822.0724l42.7478-42.7478c1.8629-1.8629 1.8305-4.9192-.0724-6.822l-2.298-2.298c-1.9029-1.9029-4.9591-1.9353-6.822-.0724zm0 0"/></g><rect width="60" height="60" x="7" y="7" ry="6.7972" fill="#f7bf9b"/><g fill="#fff"><path d="M30.6364 20H13.3637c-.7527 0-1.3636.672-1.3636 1.5v1c0 .828.6109 1.5 1.3636 1.5h17.2727C31.3891 24 32 23.328 32 22.5v-1c0-.828-.6109-1.5-1.3636-1.5zm0 0"/><path d="M20 13.3637v17.2727C20 31.3891 20.672 32 21.5 32h1c.828 0 1.5-.6109 1.5-1.3636V13.3637C24 12.611 23.328 12 22.5 12h-1c-.828 0-1.5.6109-1.5 1.3636zM60.6364 20H43.3637c-.7527 0-1.3636.672-1.3636 1.5v1c0 .828.6109 1.5 1.3636 1.5h17.2727C61.3891 24 62 23.328 62 22.5v-1c0-.828-.6109-1.5-1.3636-1.5zm-1.1153 36.6927L47.3074 44.479c-.5323-.5323-1.4394-.4891-2.0249.0964l-.7071.7071c-.5855.5855-.6287 1.4927-.0964 2.0249l12.2137 12.2137c.5323.5323 1.4394.4891 2.0249-.0964l.7071-.7071c.5855-.5855.6287-1.4927.0964-2.0249zm0 0"/><path d="M56.6926 44.479L44.479 56.6927c-.5323.5323-.4891 1.4394.0964 2.0249l.7071.7071c.5855.5855 1.4927.6287 2.0249.0964l12.2137-12.2137c.5323-.5323.4891-1.4394-.0964-2.0249l-.7071-.7071c-.5855-.5855-1.4927-.6287-2.0249-.0964zm-43.5239 9.506c-.5126-.0836-.9405-.4843-1.108-1.0377-.0595-.1967-.0598-.201-.0606-.9191-.001-.8099.0063-.868.1475-1.196.1494-.3471.4197-.6041.8076-.7679l.1277-.0539 8.8403-.0066 9.3225.1576c.2339.127.4923.4124.6048.668.1277.2901.1501.4668.1497 1.1791-.0005.719-.0191.8578-.1572 1.1675-.1652.3707-.4657.6428-.8596.7783-.1138.0392-.6835.0421-8.9115.0454-4.8344.0022-8.8408-.0052-8.903-.015z"/><path d="M21.5504 60.9684c-.2094-.0477-.5252-.1977-.7235-.3436-.2041-.1501-.4748-.4496-.5934-.6565-.0541-.0944-.1285-.2615-.1653-.3714-.0608-.1815-.0671-.2331-.0681-.5621-.0014-.4087.029-.5647.1684-.8689.0972-.2121.2443-.4165.4275-.5937.9938-.962 2.6123-.6716 3.2076.5755.2585.5415.2621 1.1529.0099 1.669-.1117.2286-.2027.3599-.3816.5506-.2573.2742-.5956.4842-.936.5809-.2077.059-.7265.0701-.9454.0201zm.1369-13.9833c-.7312-.1363-1.3596-.686-1.5933-1.3939-.2794-.8462.0807-1.8017.8629-2.2892 1.1507-.7173 2.665-.0964 2.9937 1.2276.0659.2656.066.6499.0001.933-.1985.8531-.9916 1.4987-1.8856 1.5351-.1398.0059-.3098 0-.3777-.0127z"/></g></svg>