<svg xmlns="http://www.w3.org/2000/svg" width="279.685" height="279.685" viewBox="0 0 74 74" xmlns:v="https://vecta.io/nano"><path d="M0 0h74v74H0z" fill="#eeb5bf"/><g fill="#fff"><g transform="matrix(.124726 .124726 -.124726 .124726 136.74788 73.926258)"><path d="M437.332 192H32c-17.664 0-32 14.336-32 32v21.332c0 17.664 14.336 32 32 32h405.332c17.664 0 32-14.336 32-32V224c0-17.664-14.336-32-32-32zm0 0"/><path d="M192 32v405.332c0 17.664 14.336 32 32 32h21.332c17.664 0 32-14.336 32-32V32c0-17.664-14.336-32-32-32H224c-17.664 0-32 14.336-32 32zm0 0"/></g><rect width="66" height="66" x="4" y="4" ry="8.946"/><path d="M218.198 168.737h-12.986c-.576 0-1.082.22-1.515.657s-.649.948-.649 1.531v13.126a2.11 2.11 0 0 0 .649 1.531c.432.437.938.656 1.515.656h12.986c.576 0 1.083-.219 1.514-.656s.651-.948.651-1.531v-13.126c0-.583-.216-1.093-.651-1.531a2.06 2.06 0 0 0-1.514-.657zm17.044-39.291c-1.479-2.754-3.391-5.077-5.736-6.974s-4.979-3.409-7.9-4.539-5.825-1.695-8.711-1.695c-10.965 0-19.333 4.849-25.105 14.547a2.18 2.18 0 0 0-.298 1.531 2.13 2.13 0 0 0 .839 1.367l8.874 6.837c.469.291.92.437 1.353.437.649 0 1.208-.292 1.678-.875 2.597-3.281 4.527-5.377 5.789-6.289 1.551-1.057 3.499-1.585 5.843-1.585 2.2 0 4.139.583 5.816 1.749s2.515 2.516 2.515 4.047c0 1.713-.45 3.099-1.352 4.156s-2.417 2.077-4.546 3.062c-2.813 1.276-5.393 3.254-7.736 5.934s-3.517 5.533-3.517 8.559v2.461c0 .693.188 1.377.568 2.051s.839 1.012 1.38 1.012h12.985c.577 0 1.082-.282 1.515-.849s.649-1.156.649-1.775c0-.911.496-2.134 1.487-3.664s2.227-2.717 3.707-3.556l3.3-1.941c.795-.492 1.831-1.286 3.112-2.379s2.272-2.179 2.975-3.254 1.335-2.47 1.894-4.184.839-3.555.839-5.523c0-3.026-.74-5.915-2.218-8.666z"/></g><path d="M-68.192-5.027h21.167v26.458h-21.167z" fill-opacity="0"/><g fill="#fff"><path d="M155.97 146.778l-42.748-42.748c-1.863-1.863-4.919-1.831-6.822.072l-2.298 2.298c-1.903 1.903-1.935 4.959-.072 6.822l42.748 42.748c1.863 1.863 4.919 1.831 6.822-.072l2.298-2.298c1.903-1.903 1.935-4.959.072-6.822zm0 0"/><path d="M146.121 103.452L103.373 146.2c-1.863 1.863-1.83 4.919.072 6.822l2.298 2.298c1.903 1.903 4.959 1.935 6.822.072l42.748-42.748c1.863-1.863 1.831-4.919-.072-6.822l-2.298-2.298c-1.903-1.903-4.959-1.935-6.822-.072zm0 0"/></g><rect width="60" height="60" x="7" y="7" ry="6.797" fill="#eeb5bf"/><path d="M42.602 12.116a3.05 3.05 0 0 0-1.371.645c-.325.278-.642.868-.771 1.431-.082.36-.141.989-.141 1.536 0 .524-.129 1.638-.313 2.721-.388 2.255-.881 3.612-1.68 4.64-.349.446-.799.876-1.649 1.579-1.042.864-1.57 1.407-2.052 2.119-.329.485-.54.903-1.042 2.08l-1.645 3.635c-1.163 2.357-2.342 4.061-3.219 4.66l-.274.188-.615.023c-.748.031-1.022.106-1.382.379-.274.207-.54.571-.646.88-.067.192-.07.735-.102 9.311l-.035 9.636c0 .43.016.586.086.852.098.367.302.711.533.903.38.313 1.049.536 1.966.653.615.074 4.456.778 6.41 1.169 1.672.336 2.052.391 3.152.469l7.303.418h5.267c2.753-.246 4.472-.883 6.054-2.24.873-.747 1.574-1.591 1.895-2.275.282-.602.317-.79.349-1.884.035-1.263-.004-1.165.916-2.13l.901-.989a4.29 4.29 0 0 0 .701-1.278c.121-.36.125-.391.125-1.036 0-.766-.043-.946-.431-1.896l-.36-.868c-.164-.41-.176-.375.274-.872.963-1.075 1.245-1.489 1.445-2.13.078-.242.094-.375.09-.782 0-.442-.012-.524-.125-.848-.157-.465-.325-.794-.771-1.517l-.47-.774-.106-.188.286-.371c.536-.692.67-.895.842-1.251.427-.883.454-1.857.086-2.9-.399-1.145-1.551-2.795-2.487-3.573-1.128-.942-2.138-1.255-4.652-1.458-1.79-.141-5.447-.172-7.754-.063l-.681.016c-.043-.035.129-.602.333-1.118.121-.305.497-1.126.838-1.826l1.621-3.721c.517-1.54.721-2.861.677-4.331-.047-1.513-.356-2.74-.987-3.94-.877-1.657-2.134-2.736-3.896-3.35-.818-.285-1.935-.434-2.494-.332zm1.574 3.287c1.492.528 2.401 1.826 2.663 3.823.141 1.04.023 2.248-.337 3.444-.282.926-.63 1.755-1.512 3.577-1.234 2.545-1.492 3.264-1.621 4.542-.055.504-.023 1.274.059 1.587.184.68.623 1.161 1.277 1.399.313.113.705.117 2.996.039l7.049.031c1.284.117 1.989.258 2.44.477.728.356 2.044 2.189 2.044 2.85 0 .207-.008.219-.509.88-.67.88-.916 1.407-.967 2.06-.059.751.184 1.435.916 2.592l.415.688.145.258-.114.152c-.063.082-.286.336-.493.563-.979 1.052-1.316 1.736-1.316 2.678 0 .516.098.95.368 1.603l.356.872a3.84 3.84 0 0 1 .208.618c.02.152.008.195-.121.391-.078.117-.439.52-.799.887-.721.739-.971 1.052-1.218 1.513-.368.696-.474 1.181-.509 2.365l-.023.899-.133.195c-.074.106-.364.426-.646.704-1.837 1.826-3.685 2.134-10.695 1.798l-1.527-.078-1.703-.098c-3.924-.227-3.849-.219-5.678-.606a260.64 260.64 0 0 0-5.917-1.098c-.556-.086-.521-.066-.489-.278.012-.098.023-3.807.023-8.244l.074-8.068c.141 0 .795-.235 1.112-.399 1.508-.782 3.086-2.838 4.727-6.149.556-1.122.787-1.634 1.633-3.592l.607-1.368c.29-.582.674-1.001 1.676-1.833.889-.735 1.778-1.599 2.142-2.08 1.265-1.673 1.95-3.592 2.397-6.727.18-1.235.239-1.826.239-2.322a6.33 6.33 0 0 1 .023-.59l.023-.145.243.055a7.2 7.2 0 0 1 .474.137zM15.57 36.356c-.356.039-.873.195-1.194.356-.963.489-1.649 1.337-1.946 2.416l-.09.332v9.284l.067 9.546c.36 1.396 1.343 2.404 2.698 2.775l.329.09h3.152 3.152l.333-.094c1.355-.387 2.33-1.376 2.671-2.725l.09-.348v-9.245-9.245l-.11-.391c-.325-1.184-1.136-2.103-2.228-2.521-.654-.254-.552-.246-3.732-.258-1.594-.004-3.031.008-3.192.027zm5.866 3.143c.07.043.168.141.215.215l.086.137v8.893l-.078 9.026c-.043.074-.129.168-.188.215-.11.082-.125.082-2.886.082-2.741 0-2.776 0-2.882-.082-.059-.043-.145-.129-.188-.188l-.082-.106-.012-8.877.067-9.042c.098-.219.235-.309.533-.336.129-.016 1.371-.023 2.761-.02l2.655.082z" fill="#fff"/></svg>