<svg xmlns="http://www.w3.org/2000/svg" width="279.685" height="279.685" viewBox="0 0 74 74" xmlns:v="https://vecta.io/nano"><path d="M0 0h74v74H0z" fill="#6abeca"/><g fill="#fff"><g transform="matrix(.12472577 .12472577 -.12472577 .12472577 136.74808 73.926058)"><path d="M437.332 192H32c-17.6641 0-32 14.3359-32 32v21.332c0 17.6641 14.3359 32 32 32h405.332c17.6641 0 32-14.3359 32-32V224c0-17.6641-14.3359-32-32-32zm0 0"/><path d="M192 32v405.332c0 17.6641 14.3359 32 32 32h21.332c17.6641 0 32-14.3359 32-32V32c0-17.6641-14.3359-32-32-32H224c-17.6641 0-32 14.3359-32 32zm0 0"/></g><rect width="66" height="66" x="4" y="4" ry="8.9457"/><path d="M218.1977 168.7372H205.212c-.5765 0-1.0817.2201-1.5146.6568s-.6495.9478-.6495 1.5312v13.1259c0 .5835.217 1.0941.6495 1.5312s.9375.6562 1.5146.6562h12.9857c.5765 0 1.0831-.2191 1.5142-.6562s.6506-.9478.6506-1.5312v-13.1259c0-.5835-.216-1.0934-.6506-1.5312s-.9377-.6568-1.5142-.6568zm17.0448-39.291c-1.4793-2.7541-3.3905-5.0772-5.7357-6.9735s-4.9786-3.4094-7.8998-4.5391-5.8252-1.6948-8.7114-1.6948c-10.9649 0-19.3331 4.8491-25.1049 14.5474-.2882.4737-.3877.984-.2977 1.531s.3701 1.0022.839 1.3667l8.8737 6.8366c.4688.2912.9199.4369 1.3529.4369.6495 0 1.2081-.2921 1.6775-.8754 2.5967-3.2808 4.5268-5.3772 5.7892-6.2891 1.5513-1.057 3.4986-1.5853 5.8432-1.5853 2.2002 0 4.1385.5835 5.8165 1.7492s2.515 2.516 2.515 4.0472c0 1.7128-.4501 3.0989-1.3522 4.1562s-2.417 2.0773-4.5456 3.0621c-2.8127 1.2759-5.3929 3.254-7.7364 5.9338s-3.5169 5.5329-3.5169 8.5588v2.4608c0 .6934.1884 1.3767.5678 2.0511s.8386 1.012 1.38 1.012h12.9855c.5772 0 1.0817-.282 1.5149-.8489s.6493-1.1562.6493-1.7751c0-.9112.4959-2.1339 1.4871-3.6643s2.2271-2.7173 3.7072-3.5561l3.2996-1.941c.7952-.4915 1.8314-1.2863 3.1123-2.3792s2.2724-2.1789 2.9749-3.254 1.3353-2.4702 1.8943-4.1842.8392-3.5548.8392-5.5233c-.0004-3.0261-.7404-5.9152-2.2184-8.6664z"/></g><path d="M-68.1916-5.027h21.1667v26.4583h-21.1667z" fill-opacity="0"/><g fill="#fff"><path d="M155.9705 146.7781l-42.7478-42.7478c-1.8629-1.8629-4.9192-1.8305-6.822.0724l-2.298 2.298c-1.9029 1.9029-1.9353 4.9591-.0724 6.822l42.7478 42.7478c1.8629 1.8629 4.9192 1.8305 6.822-.0724l2.298-2.298c1.9029-1.9029 1.9353-4.9591.0724-6.822zm0 0"/><path d="M146.1209 103.4521l-42.7478 42.7478c-1.8629 1.8629-1.8305 4.9192.0724 6.822l2.298 2.298c1.9029 1.9029 4.9591 1.9353 6.822.0724l42.7478-42.7478c1.8629-1.8629 1.8305-4.9192-.0724-6.822l-2.298-2.298c-1.9029-1.9029-4.9591-1.9353-6.822-.0724zm0 0"/></g><rect width="60" height="60" x="7" y="7" ry="6.7972" fill="#6abeca"/><path d="M41.0158 49.9932h-9.09c-.4035 0-.7572.1572-1.0602.4692s-.4546.677-.4546 1.0937v9.3756c0 .4168.1519.7815.4546 1.0937s.6563.4687 1.0602.4687h9.09c.4035 0 .7581-.1565 1.0599-.4687s.4554-.677.4554-1.0937v-9.3756c0-.4168-.1512-.781-.4554-1.0937s-.6564-.4692-1.0599-.4692zm11.9313-29.1234c-1.0355-1.9672-2.3734-3.6266-4.015-4.9811s-3.485-2.4353-5.5298-3.2422-4.0776-1.2106-6.098-1.2106c-7.6754 0-13.5332 3.4636-17.5734 10.391-.2018.3384-.2714.7028-.2084 1.0936s.2591.7158.5873.9762l6.2116 4.8833c.3282.208.6439.3121.947.3121.4546 0 .8457-.2087 1.1743-.6253 1.8177-2.3435 3.1688-3.8408 4.0524-4.4922 1.0859-.755 2.449-1.1323 4.0902-1.1323 1.5402 0 2.897.4168 4.0715 1.2494s1.7605 1.7971 1.7605 2.8909c0 1.2235-.3151 2.2135-.9465 2.9687s-1.6919 1.4838-3.1819 2.1872c-1.9689.9114-3.775 2.3243-5.4155 4.2384s-2.4619 3.9521-2.4619 6.1134v1.7577c0 .4953.1319.9833.3974 1.4651s.587.7228.966.7228h9.0898c.4041 0 .7572-.2014 1.0605-.6064s.4545-.8258.4545-1.2679c0-.6509.3472-1.5242 1.041-2.6174s1.559-1.9409 2.595-2.5401l2.3097-1.3864c.5566-.3511 1.282-.9188 2.1786-1.6994s1.5907-1.5563 2.0825-2.3243.9347-1.7644 1.326-2.9887.5874-2.5391.5874-3.9452c-.0003-2.1615-.5183-4.2252-1.5529-6.1903z" fill="#fff"/></svg>