<?xml version="1.0" encoding="UTF-8" standalone="no"?>
<svg
   xmlns:dc="http://purl.org/dc/elements/1.1/"
   xmlns:cc="http://creativecommons.org/ns#"
   xmlns:rdf="http://www.w3.org/1999/02/22-rdf-syntax-ns#"
   xmlns:svg="http://www.w3.org/2000/svg"
   xmlns="http://www.w3.org/2000/svg"
   xmlns:sodipodi="http://sodipodi.sourceforge.net/DTD/sodipodi-0.dtd"
   xmlns:inkscape="http://www.inkscape.org/namespaces/inkscape"
   height="80mm"
   viewBox="0 0 226.77165 226.77165"
   width="80mm"
   version="1.1"
   id="svg30"
   sodipodi:docname="_delit_.svg"
   inkscape:version="1.0.2-2 (e86c870879, 2021-01-15)">
  <metadata
     id="metadata36">
    <rdf:RDF>
      <cc:Work
         rdf:about="">
        <dc:format>image/svg+xml</dc:format>
        <dc:type
           rdf:resource="http://purl.org/dc/dcmitype/StillImage" />
        <dc:title></dc:title>
      </cc:Work>
    </rdf:RDF>
  </metadata>
  <defs
     id="defs34" />
  <sodipodi:namedview
     pagecolor="#ffffff"
     bordercolor="#666666"
     borderopacity="1"
     objecttolerance="10"
     gridtolerance="10"
     guidetolerance="10"
     inkscape:pageopacity="0"
     inkscape:pageshadow="2"
     inkscape:window-width="1920"
     inkscape:window-height="1027"
     id="namedview32"
     showgrid="true"
     inkscape:zoom="0.51155435"
     inkscape:cx="306.22212"
     inkscape:cy="330.63286"
     inkscape:window-x="-8"
     inkscape:window-y="-8"
     inkscape:window-maximized="1"
     inkscape:current-layer="g28"
     inkscape:document-rotation="0"
     units="mm">
    <inkscape:grid
       type="xygrid"
       id="grid38" />
  </sodipodi:namedview>
  <g
     fill="#4caf50"
     id="g28"
     style="fill:#6d0057;fill-opacity:1">
    <path
       style="fill:#44aa00;fill-opacity:1;stroke-width:0.22671"
       d="m 109.24343,198.30967 c -1.92923,-0.44005 -4.83885,-1.82164 -6.66571,-3.1651 -1.8805,-1.38293 -4.374327,-4.14179 -5.466907,-6.04794 -0.49827,-0.86929 -1.18353,-2.40907 -1.52281,-3.42173 -0.56026,-1.67221 -0.61781,-2.14746 -0.62704,-5.17835 -0.0115,-3.76562 0.26689,-5.20198 1.55136,-8.00483 0.89556,-1.95423 2.25096,-3.83686 3.937987,-5.46983 9.15572,-8.8623 24.06634,-6.18693 29.55036,5.30214 2.38141,4.98908 2.41488,10.62087 0.0914,15.376 -1.02903,2.10596 -1.86769,3.31586 -3.51589,5.07225 -2.37077,2.5264 -5.48703,4.46042 -8.62317,5.35172 -1.9134,0.54379 -6.69285,0.64568 -8.70958,0.18567 z"
       id="path1670" />
    <path
       style="fill:#44aa00;fill-opacity:1;stroke-width:0.222346;image-rendering:auto"
       d="m 25.767655,131.67004 c -5.085426,-0.76979 -9.33122,-4.46237 -10.992894,-9.56053 -0.590523,-1.81178 -0.593377,-1.85198 -0.600968,-8.46807 -0.0086,-7.46225 0.06249,-7.99746 1.46295,-11.01913 1.482156,-3.197962 4.163585,-5.565652 8.012381,-7.074902 l 1.267029,-0.49685 87.706447,-0.058 c 97.25967,-0.0643 89.23255,-0.19037 92.49079,1.45248 2.32025,1.16992 4.88416,3.799762 6.00022,6.154532 1.26661,2.67243 1.48912,4.30048 1.48474,10.86335 -0.004,6.62388 -0.18985,7.90287 -1.55945,10.75659 -1.63923,3.41555 -4.62006,5.92186 -8.52857,7.17091 -1.1295,0.36096 -6.78111,0.38765 -88.41316,0.41761 -47.963592,0.0176 -87.711872,-0.0445 -88.329515,-0.138 z"
       id="path1672" />
    <path
       style="fill:#44aa00;fill-opacity:1;stroke-width:0.226124"
       d="m 110.50484,64.88407 c -6.73603,-1.255311 -12.525265,-6.319977 -14.678565,-12.841436 -2.57419,-7.796195 0.74356,-16.598716 7.949135,-21.090322 10.60134,-6.608357 24.55153,-0.887872 27.57975,11.309496 0.6075,2.446921 0.60782,5.987625 8.6e-4,8.595984 -1.82906,7.85929 -9.13513,13.807457 -17.37162,14.142956 -1.28787,0.05246 -2.85364,-4.9e-5 -3.47948,-0.116678 z"
       id="path1674" />
  </g>
</svg>
