<svg xmlns="http://www.w3.org/2000/svg" height="302.3622" viewBox="0 0 226.7717 226.7717" width="302.3622" fill="#4a0" xmlns:v="https://vecta.io/nano"><path d="M109.2434 198.3097c-1.9292-.4401-4.8388-1.8216-6.6657-3.1651-1.8805-1.3829-4.3743-4.1418-5.4669-6.0479-.4983-.8693-1.1835-2.4091-1.5228-3.4217-.5603-1.6722-.6178-2.1475-.627-5.1783-.0115-3.7656.2669-5.202 1.5514-8.0048.8956-1.9542 2.251-3.8369 3.938-5.4698 9.1557-8.8623 24.0663-6.1869 29.5504 5.3021 2.3814 4.9891 2.4149 10.6209.0914 15.376-1.029 2.106-1.8677 3.3159-3.5159 5.0722-2.3708 2.5264-5.487 4.4604-8.6232 5.3517-1.9134.5438-6.6928.6457-8.7096.1857zM25.7677 131.67c-5.0854-.7698-9.3312-4.4624-10.9929-9.5605-.5905-1.8118-.5934-1.852-.601-8.4681-.0086-7.4622.0625-7.9975 1.4629-11.0191 1.4822-3.198 4.1636-5.5657 8.0124-7.0749l1.267-.4968 87.7064-.058c97.2597-.0643 89.2326-.1904 92.4908 1.4525 2.3202 1.1699 4.8842 3.7998 6.0002 6.1545 1.2666 2.6724 1.4891 4.3005 1.4847 10.8633-.004 6.6239-.1899 7.9029-1.5594 10.7566-1.6392 3.4155-4.6201 5.9219-8.5286 7.1709-1.1295.361-6.7811.3877-88.4132.4176-47.9636.0176-87.7119-.0445-88.3295-.138zm84.7371-66.7859c-6.736-1.2553-12.5253-6.32-14.6786-12.8414-2.5742-7.7962.7436-16.5987 7.9491-21.0903 10.6013-6.6084 24.5515-.8879 27.5797 11.3095.6075 2.4469.6078 5.9876.0009 8.596-1.8291 7.8593-9.1351 13.8075-17.3716 14.143-1.2879.0525-2.8536 0-3.4795-.1167z"/></svg>