<svg xmlns="http://www.w3.org/2000/svg" height="302.3622" viewBox="0 0 226.7717 226.7717" width="302.3622" xmlns:v="https://vecta.io/nano"><path d="M24.0235 131.2901c-4.1648-1.1539-7.2603-4.0079-8.965-8.2654-.8211-2.0508-.8853-2.7476-.8853-9.6097s.0642-7.5589.8853-9.6097c1.1474-2.8658 2.8234-5.0088 5.0808-6.4969 3.8958-2.5681-2.6608-2.4084 94.3047-2.2965l87.9195.1014 2.464 1.205c3.0021 1.4682 5.3133 3.7785 6.7166 6.7139 1.0514 2.1993 1.0543 2.2279 1.0543 10.3828 0 8.0992-.0098 8.1978-1.0252 10.3217-1.3919 2.9113-3.7895 5.3173-6.7457 6.7696l-2.464 1.2104-88.1338.0738c-76.633.0642-88.4042-.0009-90.2062-.5004z" fill="#44f"/></svg>