<?xml version="1.0" encoding="UTF-8" standalone="no"?>
<svg
   xmlns:dc="http://purl.org/dc/elements/1.1/"
   xmlns:cc="http://creativecommons.org/ns#"
   xmlns:rdf="http://www.w3.org/1999/02/22-rdf-syntax-ns#"
   xmlns:svg="http://www.w3.org/2000/svg"
   xmlns="http://www.w3.org/2000/svg"
   height="80mm"
   viewBox="0 0 226.77165 226.77165"
   width="80mm"
   version="1.1"
   id="svg30">
  <metadata
     id="metadata36">
    <rdf:RDF>
      <cc:Work
         rdf:about="">
        <dc:format>image/svg+xml</dc:format>
        <dc:type
           rdf:resource="http://purl.org/dc/dcmitype/StillImage" />
        <dc:title></dc:title>
      </cc:Work>
    </rdf:RDF>
  </metadata>
  <defs
     id="defs34" />
  <g
     fill="#4caf50"
     id="g28"
     style="fill:#6d0057;fill-opacity:1"
     transform="matrix(0.42786486,0,0,0.43598493,13.033324,11.103833)">
    <path
       style="fill:#4444ff;fill-opacity:1;stroke-width:0.889544"
       d="m 25.686158,275.66601 c -9.733867,-2.64676 -16.9687083,-9.19279 -20.9528065,-18.95794 -1.9191503,-4.70392 -2.069184,-6.3021 -2.069184,-22.0414 0,-15.73929 0.1500337,-17.33748 2.069184,-22.04139 2.6817934,-6.57316 6.5987515,-11.48856 11.8746985,-14.9016 9.10532,-5.89026 -6.218739,-5.52404 220.4076,-5.26745 l 205.48435,0.23265 5.75872,2.76388 c 7.01656,3.36757 12.41821,8.66647 15.69801,15.39941 2.45734,5.04454 2.46412,5.11012 2.46412,23.8145 0,18.57689 -0.0228,18.80302 -2.39609,23.67434 -3.25311,6.67744 -8.8567,12.19613 -15.76604,15.52714 l -5.75872,2.77632 -205.98511,0.16929 c -179.105669,0.1472 -206.617173,-0.002 -210.828732,-1.14775 z"
       id="path909" />
  </g>
</svg>
