<?xml version="1.0" encoding="UTF-8" standalone="no"?>
<svg
   xmlns:dc="http://purl.org/dc/elements/1.1/"
   xmlns:cc="http://creativecommons.org/ns#"
   xmlns:rdf="http://www.w3.org/1999/02/22-rdf-syntax-ns#"
   xmlns:svg="http://www.w3.org/2000/svg"
   xmlns="http://www.w3.org/2000/svg"
   height="80mm"
   viewBox="0 0 226.77165 226.77165"
   width="80mm"
   version="1.1"
   id="svg30">
  <metadata
     id="metadata36">
    <rdf:RDF>
      <cc:Work
         rdf:about="">
        <dc:format>image/svg+xml</dc:format>
        <dc:type
           rdf:resource="http://purl.org/dc/dcmitype/StillImage" />
        <dc:title></dc:title>
      </cc:Work>
    </rdf:RDF>
  </metadata>
  <defs
     id="defs34" />
  <g
     fill="#4caf50"
     id="g28"
     style="fill:#6d0057;fill-opacity:1">
    <path
       d="M 199.06938,94.960626 H 27.702255 c -7.468049,0 -13.529027,6.190934 -13.529027,13.819114 v 9.21217 c 0,7.62818 6.060978,13.81911 13.529027,13.81911 H 199.06938 c 7.46805,0 13.52903,-6.19093 13.52903,-13.81911 v -9.21217 c 0,-7.62818 -6.06098,-13.819114 -13.52903,-13.819114 z m 0,0"
       id="path24"
       style="fill:#6d0057;fill-opacity:1;stroke-width:0.427291" />
    <path
       d="M 94.960626,27.702255 V 199.06938 c 0,7.46805 6.190934,13.52903 13.819114,13.52903 h 9.21217 c 7.62818,0 13.81911,-6.06098 13.81911,-13.52903 V 27.702255 c 0,-7.468049 -6.19093,-13.529027 -13.81911,-13.529027 h -9.21217 c -7.62818,0 -13.819114,6.060978 -13.819114,13.529027 z m 0,0"
       id="path26"
       style="fill:#6d0057;fill-opacity:1;stroke-width:0.427291" />
  </g>
</svg>
