<svg xmlns="http://www.w3.org/2000/svg" height="302.3622" viewBox="0 0 226.7717 226.7717" width="302.3622" fill="#6d0057" xmlns:v="https://vecta.io/nano"><path d="M199.0694 94.9606H27.7023c-7.468 0-13.529 6.1909-13.529 13.8191v9.2122c0 7.6282 6.061 13.8191 13.529 13.8191h171.3671c7.4681 0 13.529-6.1909 13.529-13.8191v-9.2122c0-7.6282-6.061-13.8191-13.529-13.8191zm0 0"/><path d="M94.9606 27.7023v171.3671c0 7.4681 6.1909 13.529 13.8191 13.529h9.2122c7.6282 0 13.8191-6.061 13.8191-13.529V27.7023c0-7.468-6.1909-13.529-13.8191-13.529h-9.2122c-7.6282 0-13.8191 6.061-13.8191 13.529zm0 0"/></svg>