<?xml version="1.0" encoding="UTF-8" standalone="no"?>
<svg
   xmlns:dc="http://purl.org/dc/elements/1.1/"
   xmlns:cc="http://creativecommons.org/ns#"
   xmlns:rdf="http://www.w3.org/1999/02/22-rdf-syntax-ns#"
   xmlns:svg="http://www.w3.org/2000/svg"
   xmlns="http://www.w3.org/2000/svg"
   xmlns:sodipodi="http://sodipodi.sourceforge.net/DTD/sodipodi-0.dtd"
   xmlns:inkscape="http://www.inkscape.org/namespaces/inkscape"
   height="80mm"
   viewBox="0 0 226.77165 226.77165"
   width="80mm"
   version="1.1"
   id="svg30"
   sodipodi:docname="_ravno_new.svg"
   inkscape:version="1.0.2-2 (e86c870879, 2021-01-15)">
  <sodipodi:namedview
     pagecolor="#ffffff"
     bordercolor="#666666"
     borderopacity="1"
     objecttolerance="10"
     gridtolerance="10"
     guidetolerance="10"
     inkscape:pageopacity="0"
     inkscape:pageshadow="2"
     inkscape:window-width="1920"
     inkscape:window-height="1027"
     id="namedview847"
     showgrid="false"
     inkscape:zoom="2.8442708"
     inkscape:cx="151.1811"
     inkscape:cy="151.1811"
     inkscape:window-x="-8"
     inkscape:window-y="-8"
     inkscape:window-maximized="1"
     inkscape:current-layer="g28" />
  <metadata
     id="metadata36">
    <rdf:RDF>
      <cc:Work
         rdf:about="">
        <dc:format>image/svg+xml</dc:format>
        <dc:type
           rdf:resource="http://purl.org/dc/dcmitype/StillImage" />
        <dc:title></dc:title>
      </cc:Work>
    </rdf:RDF>
  </metadata>
  <defs
     id="defs34" />
  <g
     fill="#4caf50"
     id="g28"
     style="fill:#6d0057;fill-opacity:1">
    <path
       d="M 199.06938,58.110234 H 27.702255 c -7.468049,0 -13.529027,6.190934 -13.529027,13.819114 v 9.21217 c 0,7.62818 6.060978,13.81911 13.529027,13.81911 H 199.06938 c 7.46805,0 13.52903,-6.19093 13.52903,-13.81911 v -9.21217 c 0,-7.62818 -6.06098,-13.819114 -13.52903,-13.819114 z m 0,0"
       id="path24"
       style="fill:#808080;fill-opacity:1;stroke-width:0.427291" />
    <path
       d="M 199.06938,131.81102 H 27.702258 c -7.46805,0 -13.52903,6.19093 -13.52903,13.81911 v 9.21217 c 0,7.62818 6.06098,13.81911 13.52903,13.81911 H 199.06938 c 7.46805,0 13.52903,-6.19093 13.52903,-13.81911 v -9.21217 c 0,-7.62818 -6.06098,-13.81911 -13.52903,-13.81911 z m 0,0"
       id="path24-3"
       style="fill:#808080;fill-opacity:1;stroke-width:0.427291" />
  </g>
</svg>
