<svg xmlns="http://www.w3.org/2000/svg" height="302.362" viewBox="0 0 226.772 226.772" width="302.362" xmlns:v="https://vecta.io/nano"><g fill="#f57676" transform="matrix(.299782 .299782 -.299782 .299782 113.38723 -27.310022)"><path d="M437.332 192H32c-17.664 0-32 14.336-32 32v21.332c0 17.664 14.336 32 32 32h405.332c17.664 0 32-14.336 32-32V224c0-17.664-14.336-32-32-32zm0 0"/><path d="M192 32v405.332c0 17.664 14.336 32 32 32h21.332c17.664 0 32-14.336 32-32V32c0-17.664-14.336-32-32-32H224c-17.664 0-32 14.336-32 32zm0 0"/></g></svg>