<?xml version="1.0" encoding="UTF-8" standalone="no"?>
<svg
   xmlns:dc="http://purl.org/dc/elements/1.1/"
   xmlns:cc="http://creativecommons.org/ns#"
   xmlns:rdf="http://www.w3.org/1999/02/22-rdf-syntax-ns#"
   xmlns:svg="http://www.w3.org/2000/svg"
   xmlns="http://www.w3.org/2000/svg"
   height="80mm"
   viewBox="0 0 226.77165 226.77165"
   width="80mm"
   version="1.1"
   id="svg30">
  <metadata
     id="metadata36">
    <rdf:RDF>
      <cc:Work
         rdf:about="">
        <dc:format>image/svg+xml</dc:format>
        <dc:type
           rdf:resource="http://purl.org/dc/dcmitype/StillImage" />
        <dc:title></dc:title>
      </cc:Work>
    </rdf:RDF>
  </metadata>
  <defs
     id="defs34" />
  <g
     fill="#4caf50"
     id="g28"
     style="fill:#f57676;fill-opacity:1"
     transform="matrix(0.29978193,0.29978193,-0.29978193,0.29978193,113.38723,-27.310022)">
    <path
       d="M 437.33203,192 H 32 C 14.335938,192 0,206.33594 0,224 v 21.33203 c 0,17.66406 14.335938,32 32,32 h 405.33203 c 17.66406,0 32,-14.33594 32,-32 V 224 c 0,-17.66406 -14.33594,-32 -32,-32 z m 0,0"
       id="path24"
       style="fill:#f57676;fill-opacity:1" />
    <path
       d="m 192,32 v 405.33203 c 0,17.66406 14.33594,32 32,32 h 21.33203 c 17.66406,0 32,-14.33594 32,-32 V 32 c 0,-17.664062 -14.33594,-32 -32,-32 H 224 c -17.66406,0 -32,14.335938 -32,32 z m 0,0"
       id="path26"
       style="fill:#f57676;fill-opacity:1" />
  </g>
</svg>
